<?xml version="1.0" encoding="UTF-8" standalone="no"?>
<!-- Created with Inkscape (http://www.inkscape.org/) -->

<svg
   xmlns:dc="http://purl.org/dc/elements/1.1/"
   xmlns:cc="http://creativecommons.org/ns#"
   xmlns:rdf="http://www.w3.org/1999/02/22-rdf-syntax-ns#"
   xmlns:svg="http://www.w3.org/2000/svg"
   xmlns="http://www.w3.org/2000/svg"
   xmlns:xlink="http://www.w3.org/1999/xlink"
   xmlns:sodipodi="http://sodipodi.sourceforge.net/DTD/sodipodi-0.dtd"
   xmlns:inkscape="http://www.inkscape.org/namespaces/inkscape"
   width="300"
   height="300"
   viewBox="0 0 109.374 109.374"
   version="1.1"
   id="svg8"
   inkscape:version="0.92.3 (2405546, 2018-03-11)"
   sodipodi:docname="net.whatsapp.WhatsApp.svg"
   inkscape:export-filename="C:\Users\Kevin\Desktop\kTheme\IconBundles\net.whatsapp.WhatsApp.png"
   inkscape:export-xdpi="96"
   inkscape:export-ydpi="96">
  <defs
     id="defs2">
    <linearGradient
       inkscape:collect="always"
       id="linearGradient988">
      <stop
         style="stop-color:#000000;stop-opacity:1;"
         offset="0"
         id="stop984" />
      <stop
         style="stop-color:#000000;stop-opacity:0;"
         offset="1"
         id="stop986" />
    </linearGradient>
    <linearGradient
       id="linearGradient4735"
       inkscape:collect="always">
      <stop
         id="stop4731"
         offset="0"
         style="stop-color:#ffffff;stop-opacity:0" />
      <stop
         id="stop4733"
         offset="1"
         style="stop-color:#009615;stop-opacity:0.60784316" />
    </linearGradient>
    <linearGradient
       inkscape:collect="always"
       xlink:href="#linearGradient4735"
       id="linearGradient4556-7"
       x1="0"
       y1="217.62498"
       x2="109.374"
       y2="326.99899"
       gradientUnits="userSpaceOnUse"
       gradientTransform="translate(0,-2.8e-6)" />
    <linearGradient
       inkscape:collect="always"
       xlink:href="#linearGradient988"
       id="linearGradient990"
       x1="0"
       y1="155.76076"
       x2="311.52048"
       y2="155.76076"
       gradientUnits="userSpaceOnUse" />
    <filter
       style="color-interpolation-filters:sRGB;"
       inkscape:label="Drop Shadow"
       id="filter1270">
      <feFlood
         flood-opacity="0.607843"
         flood-color="rgb(0,0,0)"
         result="flood"
         id="feFlood1260" />
      <feComposite
         in="flood"
         in2="SourceGraphic"
         operator="in"
         result="composite1"
         id="feComposite1262" />
      <feGaussianBlur
         in="composite1"
         stdDeviation="1"
         result="blur"
         id="feGaussianBlur1264" />
      <feOffset
         dx="0"
         dy="0"
         result="offset"
         id="feOffset1266" />
      <feComposite
         in="SourceGraphic"
         in2="offset"
         operator="over"
         result="composite2"
         id="feComposite1268" />
    </filter>
    <filter
       style="color-interpolation-filters:sRGB;"
       inkscape:label="Drop Shadow"
       id="filter1366">
      <feFlood
         flood-opacity="0.607843"
         flood-color="rgb(0,0,0)"
         result="flood"
         id="feFlood1356" />
      <feComposite
         in="flood"
         in2="SourceGraphic"
         operator="out"
         result="composite1"
         id="feComposite1358" />
      <feGaussianBlur
         in="composite1"
         stdDeviation="10"
         result="blur"
         id="feGaussianBlur1360" />
      <feOffset
         dx="0"
         dy="0"
         result="offset"
         id="feOffset1362" />
      <feComposite
         in="offset"
         in2="SourceGraphic"
         operator="atop"
         result="composite2"
         id="feComposite1364" />
    </filter>
    <filter
       style="color-interpolation-filters:sRGB;"
       inkscape:label="Drop Shadow"
       id="filter1527">
      <feFlood
         flood-opacity="0.607843"
         flood-color="rgb(0,0,0)"
         result="flood"
         id="feFlood1517" />
      <feComposite
         in="flood"
         in2="SourceGraphic"
         operator="in"
         result="composite1"
         id="feComposite1519" />
      <feGaussianBlur
         in="composite1"
         stdDeviation="0.5"
         result="blur"
         id="feGaussianBlur1521" />
      <feOffset
         dx="0"
         dy="0"
         result="offset"
         id="feOffset1523" />
      <feComposite
         in="SourceGraphic"
         in2="offset"
         operator="over"
         result="composite2"
         id="feComposite1525" />
    </filter>
  </defs>
  <sodipodi:namedview
     id="base"
     pagecolor="#ffffff"
     bordercolor="#666666"
     borderopacity="1.0"
     inkscape:pageopacity="0.0"
     inkscape:pageshadow="2"
     inkscape:zoom="2.8"
     inkscape:cx="27.943103"
     inkscape:cy="125.58222"
     inkscape:document-units="px"
     inkscape:current-layer="g923"
     showgrid="false"
     units="px"
     inkscape:pagecheckerboard="true"
     objecttolerance="5"
     gridtolerance="5"
     guidetolerance="5"
     showborder="true"
     inkscape:showpageshadow="false"
     borderlayer="true"
     scale-x="0.36458"
     inkscape:window-width="1920"
     inkscape:window-height="1057"
     inkscape:window-x="-8"
     inkscape:window-y="-8"
     inkscape:window-maximized="1"
     showguides="true"
     inkscape:guide-bbox="true">
    <sodipodi:guide
       position="0,0"
       orientation="1,0"
       id="guide4515"
       inkscape:locked="false"
       inkscape:label=""
       inkscape:color="rgb(0,0,255)" />
    <sodipodi:guide
       position="0,109.374"
       orientation="0,1"
       id="guide4517"
       inkscape:locked="false"
       inkscape:label=""
       inkscape:color="rgb(0,0,255)" />
    <sodipodi:guide
       position="109.374,0"
       orientation="1,0"
       id="guide4519"
       inkscape:locked="false"
       inkscape:label=""
       inkscape:color="rgb(0,0,255)" />
    <sodipodi:guide
       position="0,0"
       orientation="0,1"
       id="guide4521"
       inkscape:locked="false"
       inkscape:label=""
       inkscape:color="rgb(0,0,255)" />
    <sodipodi:guide
       position="0,82.0305"
       orientation="0,1"
       id="guide4528"
       inkscape:locked="false"
       inkscape:label=""
       inkscape:color="rgb(0,0,255)" />
    <sodipodi:guide
       position="27.3435,0"
       orientation="1,0"
       id="guide4530"
       inkscape:locked="false"
       inkscape:label=""
       inkscape:color="rgb(0,0,255)" />
    <sodipodi:guide
       position="0,27.3435"
       orientation="0,1"
       id="guide4532"
       inkscape:locked="false"
       inkscape:label=""
       inkscape:color="rgb(0,0,255)" />
    <sodipodi:guide
       position="82.0305,0"
       orientation="1,0"
       id="guide4534"
       inkscape:locked="false"
       inkscape:label=""
       inkscape:color="rgb(0,0,255)" />
    <sodipodi:guide
       position="54.687,0"
       orientation="1,0"
       id="guide4536"
       inkscape:locked="false"
       inkscape:label=""
       inkscape:color="rgb(0,0,255)" />
    <sodipodi:guide
       position="0,54.687"
       orientation="0,1"
       id="guide4538"
       inkscape:locked="false"
       inkscape:label=""
       inkscape:color="rgb(0,0,255)" />
    <sodipodi:guide
       position="30.9893,0"
       orientation="1,0"
       id="guide996"
       inkscape:locked="false"
       inkscape:label=""
       inkscape:color="rgb(0,0,255)" />
    <sodipodi:guide
       position="78.3847,0"
       orientation="1,0"
       id="guide998"
       inkscape:locked="false"
       inkscape:label=""
       inkscape:color="rgb(0,0,255)" />
    <sodipodi:guide
       position="0,78.3847"
       orientation="0,1"
       id="guide1002"
       inkscape:locked="false"
       inkscape:label=""
       inkscape:color="rgb(0,0,255)" />
    <sodipodi:guide
       position="0,30.9893"
       orientation="0,1"
       id="guide1004"
       inkscape:locked="false"
       inkscape:label=""
       inkscape:color="rgb(0,0,255)" />
    <sodipodi:guide
       position="42.83815,0"
       orientation="1,0"
       id="guide1437"
       inkscape:locked="false"
       inkscape:label=""
       inkscape:color="rgb(0,0,255)" />
    <sodipodi:guide
       position="0,42.83815"
       orientation="0,1"
       id="guide1439"
       inkscape:locked="false"
       inkscape:label=""
       inkscape:color="rgb(0,0,255)" />
    <sodipodi:guide
       position="0,66.53585"
       orientation="0,1"
       id="guide1441"
       inkscape:locked="false"
       inkscape:label=""
       inkscape:color="rgb(0,0,255)" />
    <sodipodi:guide
       position="66.53585,0"
       orientation="1,0"
       id="guide1443"
       inkscape:locked="false"
       inkscape:label=""
       inkscape:color="rgb(0,0,255)" />
  </sodipodi:namedview>
  <metadata
     id="metadata5">
    <rdf:RDF>
      <cc:Work
         rdf:about="">
        <dc:format>image/svg+xml</dc:format>
        <dc:type
           rdf:resource="http://purl.org/dc/dcmitype/StillImage" />
        <dc:title />
      </cc:Work>
    </rdf:RDF>
  </metadata>
  <g
     inkscape:label="bg_green"
     inkscape:groupmode="layer"
     id="g4582"
     transform="translate(0,-217.62498)"
     style="display:inline"
     sodipodi:insensitive="true">
    <path
       style="fill:#37ff55;fill-opacity:1;stroke:none;stroke-width:0.36458001px;stroke-linecap:butt;stroke-linejoin:miter;stroke-opacity:1"
       d="m 0,272.31198 v -27.3435 c 0,0 0,-27.3435 27.3435,-27.3435 27.3435,0 27.3435,0 27.3435,0 h 27.3435 c 0,0 27.3435,0 27.3435,27.3435 0,27.3435 0,27.3435 0,27.3435 v 27.3435 c 0,0 0,27.3435 -27.3435,27.3435 -27.3435,0 -27.3435,0 -27.3435,0 H 27.3435 c 0,0 -27.3435,0 -27.3435,-27.3435 0,-27.3435 0,-27.3435 0,-27.3435 z"
       id="path4580"
       inkscape:connector-curvature="0" />
    <path
       inkscape:connector-curvature="0"
       id="path4546-8"
       d="m 0,272.31198 v -27.3435 c 0,0 0,-27.3435 27.3435,-27.3435 27.3435,0 27.3435,0 27.3435,0 h 27.3435 c 0,0 27.3435,0 27.3435,27.3435 0,27.3435 0,27.3435 0,27.3435 v 27.3435 c 0,0 0,27.3435 -27.3435,27.3435 -27.3435,0 -27.3435,0 -27.3435,0 H 27.3435 c 0,0 -27.3435,0 -27.3435,-27.3435 0,-27.3435 0,-27.3435 0,-27.3435 z"
       style="display:inline;fill:url(#linearGradient4556-7);fill-opacity:1;stroke:none;stroke-width:0.36458001px;stroke-linecap:butt;stroke-linejoin:miter;stroke-opacity:1" />
  </g>
  <g
     inkscape:groupmode="layer"
     id="layer1"
     inkscape:label="icon">
    <g
       id="g982"
       transform="matrix(0.17551826,0,0,0.18291164,27.360186,26.189767)"
       style="fill:#f3f3f3;fill-opacity:1;stroke:none;stroke-opacity:1">
      <g
         id="g925"
         style="fill:#f3f3f3;fill-opacity:1;stroke:none;stroke-opacity:1">
        <g
           id="g923"
           style="fill:#f3f3f3;fill-opacity:1;stroke:none;stroke-opacity:1">
          <path
             style="fill:#f3f3f3;fill-opacity:1;stroke:none;stroke-width:0.49146092;stroke-opacity:1;filter:url(#filter1270)"
             d="m 150,75 a 75.000005,74.999994 0 0 0 -75,75 75.000005,74.999994 0 0 0 14.46875,44.12891 c -1.305354,13.22811 -12.35036,18.89361 -12.943359,19.09961 -0.739471,0.51324 -1.480469,1.28356 -1.480469,2.05468 0,1.28437 0.492952,2.31243 1.232422,2.82618 18.295998,12.09106 36.955326,4.62046 44.175776,0.80664 A 75.000005,74.999994 0 0 0 150,225 a 75.000005,74.999994 0 0 0 0.64062,-0.0234 c 0.84272,0.0396 1.68906,0.0684 2.54297,0.0684 -0.0774,-0.0543 -0.13972,-0.0963 -0.21679,-0.15039 A 75.000005,74.999994 0 0 0 225,150 75.000005,74.999994 0 0 0 150,75 Z"
             transform="matrix(2.0771628,0,0,1.9932028,-155.88228,-143.18262)"
             id="path921"
             inkscape:connector-curvature="0" />
          <ellipse
             style="fill:#0fff31;fill-opacity:0.60784316;stroke:none;stroke-width:6.10424948;stroke-linecap:butt;stroke-linejoin:round;stroke-miterlimit:4;stroke-dasharray:none;stroke-opacity:1;filter:url(#filter1366)"
             id="path1006"
             cx="155.69214"
             cy="155.79781"
             rx="135.01558"
             ry="129.55818"
             inkscape:export-xdpi="96"
             inkscape:export-ydpi="96" />
          <g
             id="g1427"
             transform="matrix(4.5649305,0,0,4.3465536,88.111935,91.349516)">
            <g
               id="g1371">
              <path
                 id="path1369"
                 d="m 23.895,29.731 c -1.237,0 -2.731,-0.31 -4.374,-0.93 C 15.919,27.443 12,24.759 8.486,21.245 4.971,17.73 2.287,13.81 0.928,10.208 -0.307,6.933 -0.31,4.245 0.921,3.015 1.098,2.838 1.278,2.648 1.464,2.452 2.587,1.271 3.856,-0.058 5.538,0.002 6.697,0.05 7.82,0.77 8.97,2.201 12.368,6.427 10.836,7.933 9.063,9.679 L 8.75,9.989 c -0.29,0.29 -0.838,1.633 4.26,6.731 1.664,1.664 3.083,2.882 4.217,3.619 0.714,0.464 1.991,1.166 2.515,0.642 l 0.315,-0.318 c 1.744,-1.769 3.25,-3.296 7.473,0.099 1.431,1.15 2.15,2.272 2.198,3.433 0.069,1.681 -1.27,2.953 -2.452,4.075 -0.195,0.186 -0.385,0.366 -0.562,0.542 -0.611,0.612 -1.588,0.919 -2.819,0.919 z M 5.418,1 C 4.223,1 3.144,2.136 2.189,3.141 1.997,3.343 1.811,3.539 1.628,3.722 0.711,4.638 0.804,7.045 1.864,9.856 c 1.31,3.472 3.913,7.266 7.33,10.683 3.416,3.415 7.208,6.018 10.681,7.327 2.811,1.062 5.218,1.152 6.133,0.237 0.183,-0.183 0.379,-0.369 0.581,-0.56 1.027,-0.976 2.192,-2.082 2.141,-3.309 -0.035,-0.843 -0.649,-1.75 -1.825,-2.695 -3.519,-2.83 -4.503,-1.831 -6.135,-0.176 l -0.32,0.323 c -0.78,0.781 -2.047,0.608 -3.767,-0.51 C 15.49,20.4 14.016,19.138 12.304,17.425 8.073,13.195 6.72,10.606 8.044,9.279 L 8.363,8.964 C 10.022,7.332 11.023,6.347 8.192,2.826 7.245,1.651 6.339,1.037 5.496,1.001 5.47,1 5.444,1 5.418,1 Z"
                 inkscape:connector-curvature="0"
                 style="filter:url(#filter1527)" />
            </g>
            <g
               id="g1373" />
            <g
               id="g1375" />
            <g
               id="g1377" />
            <g
               id="g1379" />
            <g
               id="g1381" />
            <g
               id="g1383" />
            <g
               id="g1385" />
            <g
               id="g1387" />
            <g
               id="g1389" />
            <g
               id="g1391" />
            <g
               id="g1393" />
            <g
               id="g1395" />
            <g
               id="g1397" />
            <g
               id="g1399" />
            <g
               id="g1401" />
          </g>
        </g>
      </g>
      <g
         id="g927"
         style="fill:#f3f3f3;fill-opacity:1;stroke:none;stroke-opacity:1" />
      <g
         id="g929"
         style="fill:#f3f3f3;fill-opacity:1;stroke:none;stroke-opacity:1" />
      <g
         id="g931"
         style="fill:#f3f3f3;fill-opacity:1;stroke:none;stroke-opacity:1" />
      <g
         id="g933"
         style="fill:#f3f3f3;fill-opacity:1;stroke:none;stroke-opacity:1" />
      <g
         id="g935"
         style="fill:#f3f3f3;fill-opacity:1;stroke:none;stroke-opacity:1" />
      <g
         id="g937"
         style="fill:#f3f3f3;fill-opacity:1;stroke:none;stroke-opacity:1" />
      <g
         id="g939"
         style="fill:#f3f3f3;fill-opacity:1;stroke:none;stroke-opacity:1" />
      <g
         id="g941"
         style="fill:#f3f3f3;fill-opacity:1;stroke:none;stroke-opacity:1" />
      <g
         id="g943"
         style="fill:#f3f3f3;fill-opacity:1;stroke:none;stroke-opacity:1" />
      <g
         id="g945"
         style="fill:#f3f3f3;fill-opacity:1;stroke:none;stroke-opacity:1" />
      <g
         id="g947"
         style="fill:#f3f3f3;fill-opacity:1;stroke:none;stroke-opacity:1" />
      <g
         id="g949"
         style="fill:#f3f3f3;fill-opacity:1;stroke:none;stroke-opacity:1" />
      <g
         id="g951"
         style="fill:#f3f3f3;fill-opacity:1;stroke:none;stroke-opacity:1" />
      <g
         id="g953"
         style="fill:#f3f3f3;fill-opacity:1;stroke:none;stroke-opacity:1" />
      <g
         id="g955"
         style="fill:#f3f3f3;fill-opacity:1;stroke:none;stroke-opacity:1" />
    </g>
  </g>
</svg>
