<?xml version="1.0" encoding="UTF-8" standalone="no"?>
<!-- Generator: Adobe Illustrator 19.0.0, SVG Export Plug-In . SVG Version: 6.00 Build 0)  -->

<svg
   xmlns:dc="http://purl.org/dc/elements/1.1/"
   xmlns:cc="http://creativecommons.org/ns#"
   xmlns:rdf="http://www.w3.org/1999/02/22-rdf-syntax-ns#"
   xmlns:svg="http://www.w3.org/2000/svg"
   xmlns="http://www.w3.org/2000/svg"
   xmlns:sodipodi="http://sodipodi.sourceforge.net/DTD/sodipodi-0.dtd"
   xmlns:inkscape="http://www.inkscape.org/namespaces/inkscape"
   version="1.1"
   id="Capa_1"
   x="0px"
   y="0px"
   viewBox="0 0 300.00001 300.00001"
   xml:space="preserve"
   sodipodi:docname="speech-bubble.svg"
   width="300"
   height="300"
   inkscape:version="0.92.3 (2405546, 2018-03-11)"><metadata
   id="metadata43"><rdf:RDF><cc:Work
       rdf:about=""><dc:format>image/svg+xml</dc:format><dc:type
         rdf:resource="http://purl.org/dc/dcmitype/StillImage" /><dc:title></dc:title></cc:Work></rdf:RDF></metadata><defs
   id="defs41" /><sodipodi:namedview
   pagecolor="#ffffff"
   bordercolor="#666666"
   borderopacity="1"
   objecttolerance="10"
   gridtolerance="10"
   guidetolerance="10"
   inkscape:pageopacity="0"
   inkscape:pageshadow="2"
   inkscape:window-width="1920"
   inkscape:window-height="1057"
   id="namedview39"
   showgrid="false"
   inkscape:showpageshadow="false"
   borderlayer="false"
   showguides="true"
   inkscape:guide-bbox="true"
   inkscape:zoom="1.5151516"
   inkscape:cx="77.256587"
   inkscape:cy="75.015654"
   inkscape:window-x="-8"
   inkscape:window-y="-8"
   inkscape:window-maximized="1"
   inkscape:current-layer="g4"><sodipodi:guide
     position="0,123.09"
     orientation="1,0"
     id="guide850"
     inkscape:locked="false"
     inkscape:label=""
     inkscape:color="rgb(0,0,255)" /><sodipodi:guide
     position="300.00001,111.54"
     orientation="1,0"
     id="guide852"
     inkscape:locked="false"
     inkscape:label=""
     inkscape:color="rgb(0,0,255)" /><sodipodi:guide
     position="-120.78,0"
     orientation="0,1"
     id="guide854"
     inkscape:locked="false"
     inkscape:label=""
     inkscape:color="rgb(0,0,255)" /><sodipodi:guide
     position="-76.89,300.00001"
     orientation="0,1"
     id="guide856"
     inkscape:locked="false"
     inkscape:label=""
     inkscape:color="rgb(0,0,255)" /></sodipodi:namedview>
<g
   id="g6"
   transform="matrix(0.96254737,0,0,1.0031193,0,-6.2122507)">
	<g
   id="g4">
		<path
   style="stroke-width:0.98262393"
   d="M 150 0 A 150 149.99999 0 0 0 0 150 A 150 149.99999 0 0 0 28.853516 238.14258 C 26.318777 264.70793 4.1450934 276.07947 2.9570312 276.49219 C 1.4785585 277.51838 2.9605947e-016 279.05977 0 280.60156 C 0 283.16955 0.98637099 285.22281 2.4648438 286.25 C 39.122262 310.47601 76.50714 295.42479 90.876953 287.81445 A 150 149.99999 0 0 0 150 300 A 150 149.99999 0 0 0 300 150 A 150 149.99999 0 0 0 150 0 z "
   transform="matrix(1.0389099,0,0,0.9968904,0,6.1929331)"
   id="path2" />
	</g>
</g>
<g
   id="g8"
   transform="translate(0,-11.519989)">
</g>
<g
   id="g10"
   transform="translate(0,-11.519989)">
</g>
<g
   id="g12"
   transform="translate(0,-11.519989)">
</g>
<g
   id="g14"
   transform="translate(0,-11.519989)">
</g>
<g
   id="g16"
   transform="translate(0,-11.519989)">
</g>
<g
   id="g18"
   transform="translate(0,-11.519989)">
</g>
<g
   id="g20"
   transform="translate(0,-11.519989)">
</g>
<g
   id="g22"
   transform="translate(0,-11.519989)">
</g>
<g
   id="g24"
   transform="translate(0,-11.519989)">
</g>
<g
   id="g26"
   transform="translate(0,-11.519989)">
</g>
<g
   id="g28"
   transform="translate(0,-11.519989)">
</g>
<g
   id="g30"
   transform="translate(0,-11.519989)">
</g>
<g
   id="g32"
   transform="translate(0,-11.519989)">
</g>
<g
   id="g34"
   transform="translate(0,-11.519989)">
</g>
<g
   id="g36"
   transform="translate(0,-11.519989)">
</g>
</svg>