<?xml version="1.0" encoding="UTF-8" standalone="no"?>
<!-- Generator: Adobe Illustrator 19.1.0, SVG Export Plug-In . SVG Version: 6.00 Build 0)  -->

<svg
   xmlns:dc="http://purl.org/dc/elements/1.1/"
   xmlns:cc="http://creativecommons.org/ns#"
   xmlns:rdf="http://www.w3.org/1999/02/22-rdf-syntax-ns#"
   xmlns:svg="http://www.w3.org/2000/svg"
   xmlns="http://www.w3.org/2000/svg"
   xmlns:sodipodi="http://sodipodi.sourceforge.net/DTD/sodipodi-0.dtd"
   xmlns:inkscape="http://www.inkscape.org/namespaces/inkscape"
   version="1.1"
   id="Layer_1"
   x="0px"
   y="0px"
   viewBox="0 0 64 64"
   enable-background="new 0 0 64 64"
   xml:space="preserve"
   sodipodi:docname="compass.svg"
   inkscape:version="0.92.3 (2405546, 2018-03-11)"><metadata
   id="metadata46"><rdf:RDF><cc:Work
       rdf:about=""><dc:format>image/svg+xml</dc:format><dc:type
         rdf:resource="http://purl.org/dc/dcmitype/StillImage" /></cc:Work></rdf:RDF></metadata><defs
   id="defs44" /><sodipodi:namedview
   pagecolor="#ffffff"
   bordercolor="#666666"
   borderopacity="1"
   objecttolerance="10"
   gridtolerance="10"
   guidetolerance="10"
   inkscape:pageopacity="0"
   inkscape:pageshadow="2"
   inkscape:window-width="1920"
   inkscape:window-height="1057"
   id="namedview42"
   showgrid="false"
   inkscape:zoom="7.375"
   inkscape:cx="37.454858"
   inkscape:cy="23.750708"
   inkscape:window-x="-8"
   inkscape:window-y="-8"
   inkscape:window-maximized="1"
   inkscape:current-layer="Compass" />
<g
   id="Compass">
	<path
   d="M38.7841988,36.6932983c1.5147018-2.2714996,1.8350029-5.1083984,0.8828011-7.660099l4.2841988-13.2245989   c0.1377029-0.4258003-0.0233994-0.8917007-0.3955002-1.1397009c-0.3710976-0.2479992-0.8612976-0.2206993-1.2040977,0.0693007   l-10.4668007,8.9073c-2.6826,0.0380993-5.1532879,1.3857002-6.6690006,3.6611004   c-1.5145988,2.2714996-1.8348999,5.1084003-0.8827991,7.6602001l-4.2840996,13.2245979   c-0.137701,0.4257011,0.0233994,0.8916016,0.3955002,1.1396027C20.6133003,49.4443016,20.8066998,49.5,21,49.5   c0.2315121,0,0.4619007-0.080101,0.6485119-0.2383003l10.4667873-8.907299   C34.7979012,40.3163986,37.2686005,38.9687004,38.7841988,36.6932983z M31.7852001,38.3515015   c-0.2490005-0.0137024-0.4922009,0.0751991-0.6826,0.2372971l-8.0645008,6.8633003L26.3467007,35.2402   c0.0741997-0.2294998,0.0634995-0.4775009-0.0303001-0.6991997c-0.8584003-2.0195999-0.6473999-4.3096008,0.5634995-6.125   c1.1630993-1.7460995,3.0653992-2.7705002,5.1210995-2.7705002c0.0713005,0,0.142601,0.0009003,0.2139015,0.0028992   c0.2548981,0.0205002,0.4921989-0.0751991,0.6826096-0.237299l8.0643883-6.8633003l-3.3085976,10.2119007   c-0.0741997,0.2294998-0.0634003,0.4776001,0.0303001,0.6991997c0.8583984,2.0195999,0.6474991,4.3096008-0.5635033,6.125   C35.9169998,37.3905983,33.9062996,38.419899,31.7852001,38.3515015z"
   id="path2" />
	
	<path
   d="M32,0c-17.6730995,0-32,14.3268995-32,32s14.3268995,32,32,32s32-14.3269005,32-32S49.6730995,0,32,0z M32,62   c-16.5419998,0-30-13.4580002-30-30c0-16.542099,13.4579992-30,30-30c16.542099,0,30,13.4579,30,30   C62,48.5419998,48.542099,62,32,62z"
   id="path6" />
	<path
   d="M32,5c-14.9116993,0-27,12.0883007-27,27c0,14.9115982,12.0883007,27,27,27s27-12.0884018,27-27   C59,17.0883007,46.9117012,5,32,5z M32,57c-13.7849998,0-25-11.2150002-25-25c0-13.7851009,11.2150002-25,25-25   c13.785099,0,25,11.2148991,25,25C57,45.7849998,45.785099,57,32,57z"
   id="path8" />
</g>
<g
   id="g11">
</g>
<g
   id="g13">
</g>
<g
   id="g15">
</g>
<g
   id="g17">
</g>
<g
   id="g19">
</g>
<g
   id="g21">
</g>
<g
   id="g23">
</g>
<g
   id="g25">
</g>
<g
   id="g27">
</g>
<g
   id="g29">
</g>
<g
   id="g31">
</g>
<g
   id="g33">
</g>
<g
   id="g35">
</g>
<g
   id="g37">
</g>
<g
   id="g39">
</g>
</svg>