<?xml version="1.0" encoding="UTF-8" standalone="no"?>
<!-- Created with Inkscape (http://www.inkscape.org/) -->

<svg
   xmlns:dc="http://purl.org/dc/elements/1.1/"
   xmlns:cc="http://creativecommons.org/ns#"
   xmlns:rdf="http://www.w3.org/1999/02/22-rdf-syntax-ns#"
   xmlns:svg="http://www.w3.org/2000/svg"
   xmlns="http://www.w3.org/2000/svg"
   xmlns:sodipodi="http://sodipodi.sourceforge.net/DTD/sodipodi-0.dtd"
   xmlns:inkscape="http://www.inkscape.org/namespaces/inkscape"
   width="300"
   height="300"
   viewBox="0 0 109.374 109.374"
   version="1.1"
   id="svg8"
   inkscape:version="0.92.3 (2405546, 2018-03-11)"
   sodipodi:docname="com.apple.calculator.svg"
   inkscape:export-filename="C:\Users\Kevin\Documents\workspace\ktheme\src\icons\com.apple.calculator-large.png"
   inkscape:export-xdpi="96"
   inkscape:export-ydpi="96">
  <defs
     id="defs2">
    <filter
       style="color-interpolation-filters:sRGB"
       inkscape:label="Drop Shadow"
       id="filter993">
      <feFlood
         flood-opacity="0.498039"
         flood-color="rgb(0,0,0)"
         result="flood"
         id="feFlood983" />
      <feComposite
         in="flood"
         in2="SourceGraphic"
         operator="in"
         result="composite1"
         id="feComposite985" />
      <feGaussianBlur
         in="composite1"
         stdDeviation="2"
         result="blur"
         id="feGaussianBlur987" />
      <feOffset
         dx="0"
         dy="0"
         result="offset"
         id="feOffset989" />
      <feComposite
         in="SourceGraphic"
         in2="offset"
         operator="over"
         result="composite2"
         id="feComposite991" />
    </filter>
  </defs>
  <sodipodi:namedview
     id="base"
     pagecolor="#ffffff"
     bordercolor="#666666"
     borderopacity="1.0"
     inkscape:pageopacity="0.0"
     inkscape:pageshadow="2"
     inkscape:zoom="1.979899"
     inkscape:cx="174.51551"
     inkscape:cy="126.75863"
     inkscape:document-units="px"
     inkscape:current-layer="layer1"
     showgrid="false"
     units="px"
     inkscape:pagecheckerboard="true"
     objecttolerance="5"
     gridtolerance="5"
     guidetolerance="5"
     showborder="true"
     inkscape:showpageshadow="false"
     borderlayer="true"
     scale-x="0.36458"
     inkscape:window-width="1920"
     inkscape:window-height="1057"
     inkscape:window-x="-8"
     inkscape:window-y="-8"
     inkscape:window-maximized="1"
     showguides="true"
     inkscape:guide-bbox="true">
    <sodipodi:guide
       position="3.5527137e-015,0"
       orientation="1,0"
       id="guide4515"
       inkscape:locked="false"
       inkscape:label=""
       inkscape:color="rgb(0,0,255)" />
    <sodipodi:guide
       position="3.5527137e-015,109.374"
       orientation="0,1"
       id="guide4517"
       inkscape:locked="false"
       inkscape:label=""
       inkscape:color="rgb(0,0,255)" />
    <sodipodi:guide
       position="109.374,0"
       orientation="1,0"
       id="guide4519"
       inkscape:locked="false"
       inkscape:label=""
       inkscape:color="rgb(0,0,255)" />
    <sodipodi:guide
       position="3.5527137e-015,0"
       orientation="0,1"
       id="guide4521"
       inkscape:locked="false"
       inkscape:label=""
       inkscape:color="rgb(0,0,255)" />
    <sodipodi:guide
       position="3.5527137e-015,82.0305"
       orientation="0,1"
       id="guide4528"
       inkscape:locked="false"
       inkscape:label=""
       inkscape:color="rgb(0,0,255)" />
    <sodipodi:guide
       position="27.3435,0"
       orientation="1,0"
       id="guide4530"
       inkscape:locked="false"
       inkscape:label=""
       inkscape:color="rgb(0,0,255)" />
    <sodipodi:guide
       position="3.5527137e-015,27.3435"
       orientation="0,1"
       id="guide4532"
       inkscape:locked="false"
       inkscape:label=""
       inkscape:color="rgb(0,0,255)" />
    <sodipodi:guide
       position="82.0305,0"
       orientation="1,0"
       id="guide4534"
       inkscape:locked="false"
       inkscape:label=""
       inkscape:color="rgb(0,0,255)" />
    <sodipodi:guide
       position="54.687,0"
       orientation="1,0"
       id="guide4536"
       inkscape:locked="false"
       inkscape:label=""
       inkscape:color="rgb(0,0,255)" />
    <sodipodi:guide
       position="3.5527137e-015,54.687"
       orientation="0,1"
       id="guide4538"
       inkscape:locked="false"
       inkscape:label=""
       inkscape:color="rgb(0,0,255)" />
    <sodipodi:guide
       position="30.9893,0"
       orientation="1,0"
       id="guide860"
       inkscape:locked="false"
       inkscape:label=""
       inkscape:color="rgb(0,0,255)" />
    <sodipodi:guide
       position="78.3847,0"
       orientation="1,0"
       id="guide862"
       inkscape:locked="false"
       inkscape:label=""
       inkscape:color="rgb(0,0,255)" />
    <sodipodi:guide
       position="3.5527137e-015,30.9893"
       orientation="0,1"
       id="guide866"
       inkscape:locked="false"
       inkscape:label=""
       inkscape:color="rgb(0,0,255)" />
    <sodipodi:guide
       position="3.5527137e-015,78.3847"
       orientation="0,1"
       id="guide868"
       inkscape:locked="false"
       inkscape:label=""
       inkscape:color="rgb(0,0,255)" />
    <sodipodi:guide
       position="3.5527137e-015,66.53585"
       orientation="0,1"
       id="guide870"
       inkscape:locked="false"
       inkscape:label=""
       inkscape:color="rgb(0,0,255)" />
    <sodipodi:guide
       position="3.5527137e-015,42.83815"
       orientation="0,1"
       id="guide872"
       inkscape:locked="false"
       inkscape:label=""
       inkscape:color="rgb(0,0,255)" />
    <sodipodi:guide
       position="42.83815,0"
       orientation="1,0"
       id="guide874"
       inkscape:locked="false"
       inkscape:label=""
       inkscape:color="rgb(0,0,255)" />
    <sodipodi:guide
       position="66.53585,0"
       orientation="1,0"
       id="guide876"
       inkscape:locked="false"
       inkscape:label=""
       inkscape:color="rgb(0,0,255)" />
  </sodipodi:namedview>
  <metadata
     id="metadata5">
    <rdf:RDF>
      <cc:Work
         rdf:about="">
        <dc:format>image/svg+xml</dc:format>
        <dc:type
           rdf:resource="http://purl.org/dc/dcmitype/StillImage" />
        <dc:title />
      </cc:Work>
    </rdf:RDF>
  </metadata>
  <g
     inkscape:label="bg"
     inkscape:groupmode="layer"
     id="g4586"
     transform="translate(0,-217.62498)"
     style="display:inline"
     sodipodi:insensitive="true">
    <rect
       style="fill:#ff0000;stroke-width:0.36458001"
       id="rect94"
       width="109.374"
       height="109.374"
       x="3.5527137e-015"
       y="217.62498" />
  </g>
  <g
     inkscape:groupmode="layer"
     id="layer1"
     inkscape:label="icon"
     sodipodi:insensitive="true">
    <g
       id="g957"
       transform="matrix(0.17524035,0,0,0.17573948,30.989805,30.934317)"
       style="fill:#ffffff;fill-opacity:1;filter:url(#filter993)"
       inkscape:export-xdpi="96"
       inkscape:export-ydpi="96">
      <g
         id="g892"
         style="fill:#ffffff;fill-opacity:1">
        <path
           id="path872"
           d="M 64.174,0.313 C 28.788,0.313 0,29.101 0,64.487 c 0,35.386 28.788,64.174 64.174,64.174 35.386,0 64.174,-28.788 64.174,-64.174 0,-35.386 -28.788,-64.174 -64.174,-64.174 z m 0,113.348 C 37.059,113.661 15,91.601 15,64.487 15,37.373 37.059,15.313 64.174,15.313 c 27.115,0 49.174,22.059 49.174,49.174 0,27.115 -22.059,49.174 -49.174,49.174 z"
           style="fill:#ffffff;fill-opacity:1"
           inkscape:connector-curvature="0" />
        <path
           id="path874"
           d="m 161.464,110.504 c 12.048,11.709 27.924,18.157 44.703,18.157 0.582,0 1.169,-0.008 1.754,-0.023 17.135,-0.461 33.065,-7.567 44.855,-20.009 11.791,-12.443 18.03,-28.732 17.569,-45.867 C 269.893,45.932 262.996,30.201 250.926,18.47 238.462,6.355 221.884,-0.141 204.471,0.336 c -35.372,0.95 -63.377,30.502 -62.426,65.875 0.453,16.832 7.349,32.561 19.419,44.293 z m 43.41,-95.173 c 0.45,-0.012 0.902,-0.018 1.351,-0.018 26.827,0 48.406,21.018 49.128,47.853 0.354,13.13 -4.428,25.611 -13.463,35.146 -9.034,9.534 -21.241,14.979 -34.371,15.333 -0.45,0.012 -0.902,0.018 -1.351,0.018 -26.827,0 -48.406,-21.02 -49.128,-47.853 -0.729,-27.106 20.73,-49.751 47.834,-50.479 z"
           style="fill:#ffffff;fill-opacity:1"
           inkscape:connector-curvature="0" />
        <path
           id="path876"
           d="M 64.174,141.711 C 28.788,141.711 0,170.499 0,205.884 c 0,35.386 28.788,64.174 64.174,64.174 35.386,0 64.174,-28.788 64.174,-64.174 0,-35.385 -28.788,-64.173 -64.174,-64.173 z m 0,113.347 C 37.059,255.058 15,232.998 15,205.884 c 0,-27.114 22.059,-49.173 49.174,-49.173 27.115,0 49.174,22.059 49.174,49.173 0,27.115 -22.059,49.174 -49.174,49.174 z"
           style="fill:#ffffff;fill-opacity:1"
           inkscape:connector-curvature="0" />
        <path
           id="path878"
           d="m 250.928,159.868 c -12.466,-12.113 -28.983,-18.623 -46.458,-18.134 -35.372,0.951 -63.376,30.503 -62.425,65.875 0.452,16.83 7.349,32.559 19.418,44.291 12.048,11.71 27.923,18.158 44.703,18.158 0.581,0 1.17,-0.008 1.755,-0.023 17.135,-0.461 33.065,-7.567 44.855,-20.009 11.791,-12.442 18.03,-28.73 17.569,-45.866 -0.451,-16.831 -7.347,-32.561 -19.417,-44.292 z m -9.039,79.84 c -9.034,9.534 -21.241,14.98 -34.372,15.333 -27.439,0.732 -49.743,-20.553 -50.478,-47.834 -0.729,-27.105 20.73,-49.749 47.835,-50.479 0.45,-0.012 0.903,-0.017 1.351,-0.017 26.827,0 48.405,21.018 49.127,47.852 0.354,13.129 -4.428,25.61 -13.463,35.145 z"
           style="fill:#ffffff;fill-opacity:1"
           inkscape:connector-curvature="0" />
        <path
           id="path880"
           d="M 87.94,57.987 H 70.674 V 40.721 c 0,-3.59 -2.91,-6.5 -6.5,-6.5 -3.59,0 -6.5,2.91 -6.5,6.5 V 57.987 H 40.408 c -3.59,0 -6.5,2.91 -6.5,6.5 0,3.59 2.91,6.5 6.5,6.5 h 17.266 v 17.268 c 0,3.589 2.91,6.5 6.5,6.5 3.59,0 6.5,-2.911 6.5,-6.5 V 70.987 H 87.94 c 3.59,0 6.5,-2.91 6.5,-6.5 0,-3.59 -2.91,-6.5 -6.5,-6.5 z"
           style="fill:#ffffff;fill-opacity:1"
           inkscape:connector-curvature="0" />
        <path
           id="path882"
           d="m 85.576,184.482 c -2.538,-2.537 -6.654,-2.538 -9.192,0.001 L 64.175,196.692 51.966,184.483 c -2.539,-2.539 -6.654,-2.538 -9.192,-0.001 -2.539,2.539 -2.539,6.654 0,9.192 l 12.209,12.21 -12.209,12.21 c -2.539,2.538 -2.539,6.653 0,9.192 1.269,1.269 2.933,1.903 4.596,1.903 1.664,0 3.327,-0.635 4.596,-1.904 l 12.209,-12.209 12.209,12.209 c 1.27,1.27 2.933,1.904 4.596,1.904 1.663,0 3.327,-0.635 4.596,-1.903 2.539,-2.539 2.539,-6.654 0,-9.192 l -12.21,-12.21 12.21,-12.21 c 2.538,-2.538 2.538,-6.653 0,-9.192 z"
           style="fill:#ffffff;fill-opacity:1"
           inkscape:connector-curvature="0" />
        <path
           id="path884"
           d="m 182.429,70.987 h 47.533 c 3.59,0 6.5,-2.91 6.5,-6.5 0,-3.59 -2.91,-6.5 -6.5,-6.5 h -47.533 c -3.59,0 -6.5,2.91 -6.5,6.5 0,3.59 2.91,6.5 6.5,6.5 z"
           style="fill:#ffffff;fill-opacity:1"
           inkscape:connector-curvature="0" />
        <path
           id="path886"
           d="m 229.962,199.384 h -47.533 c -3.59,0 -6.5,2.911 -6.5,6.5 0,3.59 2.91,6.5 6.5,6.5 h 47.533 c 3.59,0 6.5,-2.91 6.5,-6.5 0,-3.589 -2.91,-6.5 -6.5,-6.5 z"
           style="fill:#ffffff;fill-opacity:1"
           inkscape:connector-curvature="0" />
        <path
           id="path888"
           d="m 206.196,190.413 c 4.011,0 7.273,-3.263 7.273,-7.273 0,-4.01 -3.263,-7.273 -7.273,-7.273 -4.011,0 -7.273,3.264 -7.273,7.273 -0.001,4.01 3.262,7.273 7.273,7.273 z"
           style="fill:#ffffff;fill-opacity:1"
           inkscape:connector-curvature="0"
           sodipodi:nodetypes="ssscs" />
        <path
           id="path890"
           d="m 206.196,221.448 c -4.011,0 -7.273,3.264 -7.273,7.273 0,4.011 3.263,7.273 7.273,7.273 4.011,0 7.273,-3.263 7.273,-7.273 0,-4.01 -3.262,-7.273 -7.273,-7.273 z"
           style="fill:#ffffff;fill-opacity:1"
           inkscape:connector-curvature="0"
           sodipodi:nodetypes="sssss" />
      </g>
      <g
         id="g894"
         style="fill:#ffffff;fill-opacity:1" />
      <g
         id="g896"
         style="fill:#ffffff;fill-opacity:1" />
      <g
         id="g898"
         style="fill:#ffffff;fill-opacity:1" />
      <g
         id="g900"
         style="fill:#ffffff;fill-opacity:1" />
      <g
         id="g902"
         style="fill:#ffffff;fill-opacity:1" />
      <g
         id="g904"
         style="fill:#ffffff;fill-opacity:1" />
      <g
         id="g906"
         style="fill:#ffffff;fill-opacity:1" />
      <g
         id="g908"
         style="fill:#ffffff;fill-opacity:1" />
      <g
         id="g910"
         style="fill:#ffffff;fill-opacity:1" />
      <g
         id="g912"
         style="fill:#ffffff;fill-opacity:1" />
      <g
         id="g914"
         style="fill:#ffffff;fill-opacity:1" />
      <g
         id="g916"
         style="fill:#ffffff;fill-opacity:1" />
      <g
         id="g918"
         style="fill:#ffffff;fill-opacity:1" />
      <g
         id="g920"
         style="fill:#ffffff;fill-opacity:1" />
      <g
         id="g922"
         style="fill:#ffffff;fill-opacity:1" />
    </g>
  </g>
</svg>
