<?xml version="1.0" encoding="UTF-8" standalone="no"?>
<!-- Created with Inkscape (http://www.inkscape.org/) -->

<svg
   xmlns:dc="http://purl.org/dc/elements/1.1/"
   xmlns:cc="http://creativecommons.org/ns#"
   xmlns:rdf="http://www.w3.org/1999/02/22-rdf-syntax-ns#"
   xmlns:svg="http://www.w3.org/2000/svg"
   xmlns="http://www.w3.org/2000/svg"
   xmlns:xlink="http://www.w3.org/1999/xlink"
   xmlns:sodipodi="http://sodipodi.sourceforge.net/DTD/sodipodi-0.dtd"
   xmlns:inkscape="http://www.inkscape.org/namespaces/inkscape"
   width="300"
   height="300"
   viewBox="0 0 109.374 109.374"
   version="1.1"
   id="svg8"
   inkscape:version="0.92.3 (2405546, 2018-03-11)"
   sodipodi:docname="com.bankofamerica.BofA.svg"
   inkscape:export-filename="C:\Users\Kevin\Documents\workspace\ktheme\src\icons-shadow\com.bankofamerica.BofA-large.png"
   inkscape:export-xdpi="96"
   inkscape:export-ydpi="96">
  <defs
     id="defs2">
    <linearGradient
       inkscape:collect="always"
       id="linearGradient892">
      <stop
         style="stop-color:#1d3179;stop-opacity:0"
         offset="0"
         id="stop888" />
      <stop
         style="stop-color:#791d1d;stop-opacity:0.60784316"
         offset="1"
         id="stop890" />
    </linearGradient>
    <filter
       style="color-interpolation-filters:sRGB;"
       inkscape:label="Drop Shadow"
       id="filter1030">
      <feFlood
         flood-opacity="0.498039"
         flood-color="rgb(0,0,0)"
         result="flood"
         id="feFlood1020" />
      <feComposite
         in="flood"
         in2="SourceGraphic"
         operator="in"
         result="composite1"
         id="feComposite1022" />
      <feGaussianBlur
         in="composite1"
         stdDeviation="2"
         result="blur"
         id="feGaussianBlur1024" />
      <feOffset
         dx="0"
         dy="0"
         result="offset"
         id="feOffset1026" />
      <feComposite
         in="SourceGraphic"
         in2="offset"
         operator="over"
         result="composite2"
         id="feComposite1028" />
    </filter>
    <linearGradient
       inkscape:collect="always"
       xlink:href="#linearGradient892"
       id="linearGradient894"
       x1="0"
       y1="0"
       x2="109.374"
       y2="109.374"
       gradientUnits="userSpaceOnUse" />
  </defs>
  <sodipodi:namedview
     id="base"
     pagecolor="#ffffff"
     bordercolor="#666666"
     borderopacity="1.0"
     inkscape:pageopacity="0.0"
     inkscape:pageshadow="2"
     inkscape:zoom="1.979899"
     inkscape:cx="95.794226"
     inkscape:cy="140.89833"
     inkscape:document-units="px"
     inkscape:current-layer="layer2"
     showgrid="false"
     units="px"
     inkscape:pagecheckerboard="true"
     objecttolerance="5"
     gridtolerance="5"
     guidetolerance="5"
     showborder="true"
     inkscape:showpageshadow="false"
     borderlayer="true"
     scale-x="0.36458"
     inkscape:window-width="1920"
     inkscape:window-height="1057"
     inkscape:window-x="-8"
     inkscape:window-y="-8"
     inkscape:window-maximized="1"
     showguides="true"
     inkscape:guide-bbox="true">
    <sodipodi:guide
       position="0,0"
       orientation="1,0"
       id="guide4515"
       inkscape:locked="false"
       inkscape:label=""
       inkscape:color="rgb(0,0,255)" />
    <sodipodi:guide
       position="0,109.374"
       orientation="0,1"
       id="guide4517"
       inkscape:locked="false"
       inkscape:label=""
       inkscape:color="rgb(0,0,255)" />
    <sodipodi:guide
       position="109.374,0"
       orientation="1,0"
       id="guide4519"
       inkscape:locked="false"
       inkscape:label=""
       inkscape:color="rgb(0,0,255)" />
    <sodipodi:guide
       position="0,0"
       orientation="0,1"
       id="guide4521"
       inkscape:locked="false"
       inkscape:label=""
       inkscape:color="rgb(0,0,255)" />
    <sodipodi:guide
       position="0,82.0305"
       orientation="0,1"
       id="guide4528"
       inkscape:locked="false"
       inkscape:label=""
       inkscape:color="rgb(0,0,255)" />
    <sodipodi:guide
       position="27.3435,0"
       orientation="1,0"
       id="guide4530"
       inkscape:locked="false"
       inkscape:label=""
       inkscape:color="rgb(0,0,255)" />
    <sodipodi:guide
       position="0,27.3435"
       orientation="0,1"
       id="guide4532"
       inkscape:locked="false"
       inkscape:label=""
       inkscape:color="rgb(0,0,255)" />
    <sodipodi:guide
       position="82.0305,0"
       orientation="1,0"
       id="guide4534"
       inkscape:locked="false"
       inkscape:label=""
       inkscape:color="rgb(0,0,255)" />
    <sodipodi:guide
       position="54.687,0"
       orientation="1,0"
       id="guide4536"
       inkscape:locked="false"
       inkscape:label=""
       inkscape:color="rgb(0,0,255)" />
    <sodipodi:guide
       position="0,54.687"
       orientation="0,1"
       id="guide4538"
       inkscape:locked="false"
       inkscape:label=""
       inkscape:color="rgb(0,0,255)" />
    <sodipodi:guide
       position="30.9893,0"
       orientation="1,0"
       id="guide860"
       inkscape:locked="false"
       inkscape:label=""
       inkscape:color="rgb(0,0,255)" />
    <sodipodi:guide
       position="78.3847,0"
       orientation="1,0"
       id="guide862"
       inkscape:locked="false"
       inkscape:label=""
       inkscape:color="rgb(0,0,255)" />
    <sodipodi:guide
       position="0,30.9893"
       orientation="0,1"
       id="guide866"
       inkscape:locked="false"
       inkscape:label=""
       inkscape:color="rgb(0,0,255)" />
    <sodipodi:guide
       position="0,78.3847"
       orientation="0,1"
       id="guide868"
       inkscape:locked="false"
       inkscape:label=""
       inkscape:color="rgb(0,0,255)" />
    <sodipodi:guide
       position="0,66.53585"
       orientation="0,1"
       id="guide870"
       inkscape:locked="false"
       inkscape:label=""
       inkscape:color="rgb(0,0,255)" />
    <sodipodi:guide
       position="0,42.83815"
       orientation="0,1"
       id="guide872"
       inkscape:locked="false"
       inkscape:label=""
       inkscape:color="rgb(0,0,255)" />
    <sodipodi:guide
       position="42.83815,0"
       orientation="1,0"
       id="guide874"
       inkscape:locked="false"
       inkscape:label=""
       inkscape:color="rgb(0,0,255)" />
    <sodipodi:guide
       position="66.53585,0"
       orientation="1,0"
       id="guide876"
       inkscape:locked="false"
       inkscape:label=""
       inkscape:color="rgb(0,0,255)" />
  </sodipodi:namedview>
  <metadata
     id="metadata5">
    <rdf:RDF>
      <cc:Work
         rdf:about="">
        <dc:format>image/svg+xml</dc:format>
        <dc:type
           rdf:resource="http://purl.org/dc/dcmitype/StillImage" />
        <dc:title />
      </cc:Work>
    </rdf:RDF>
  </metadata>
  <g
     inkscape:label="bg"
     inkscape:groupmode="layer"
     id="g4586"
     transform="translate(0,-217.62498)"
     style="display:inline"
     sodipodi:insensitive="true">
    <rect
       style="fill:#ff0000;stroke-width:0.36458001"
       id="rect890"
       width="109.374"
       height="109.374"
       x="0"
       y="217.62498" />
  </g>
  <g
     inkscape:groupmode="layer"
     id="layer2"
     inkscape:label="shadow">
    <rect
       style="fill:url(#linearGradient894);fill-opacity:1;stroke:none;stroke-width:1.96982574;stroke-miterlimit:4;stroke-dasharray:7.87930278, 7.87930277999999973;stroke-dashoffset:9.72539997;stroke-opacity:1"
       id="rect886"
       width="109.374"
       height="109.374"
       x="0"
       y="0" />
  </g>
  <g
     inkscape:groupmode="layer"
     id="layer1"
     inkscape:label="icon"
     sodipodi:insensitive="true">
    <g
       id="g1018"
       transform="matrix(0.09257289,0,0,0.09873066,30.98786,30.99087)"
       style="fill:#ffffff;fill-opacity:1;filter:url(#filter1030)">
      <path
         id="path872"
         d="M 496,480.00781 H 8 c -4.425781,0 -8,-3.57812 -8,-8 v -24 c 0,-4.42578 3.574219,-8 8,-8 h 488 c 4.42578,0 8,3.57422 8,8 v 24 c 0,4.42188 -3.57422,8 -8,8 z m -480,-16 h 472 v -8 H 16 Z m 0,0"
         inkscape:connector-curvature="0"
         style="fill:#ffffff;fill-opacity:1" />
      <path
         id="path874"
         d="m 480,456.00781 c -4.42578,0 -8,-3.57812 -8,-8 v -16 H 32 v 16 c 0,4.42188 -3.574219,8 -8,8 -4.425781,0 -8,-3.57812 -8,-8 v -24 c 0,-4.42578 3.574219,-8 8,-8 h 456 c 4.42578,0 8,3.57422 8,8 v 24 c 0,4.42188 -3.57422,8 -8,8 z m 0,0"
         inkscape:connector-curvature="0"
         style="fill:#ffffff;fill-opacity:1" />
      <path
         id="path876"
         d="m 464,432.00781 c -4.42578,0 -8,-3.57812 -8,-8 v -16 H 48 v 16 c 0,4.42188 -3.574219,8 -8,8 -4.425781,0 -8,-3.57812 -8,-8 v -24 c 0,-4.42578 3.574219,-8 8,-8 h 424 c 4.42578,0 8,3.57422 8,8 v 24 c 0,4.42188 -3.57422,8 -8,8 z m 0,0"
         inkscape:connector-curvature="0"
         style="fill:#ffffff;fill-opacity:1" />
      <path
         id="path878"
         d="M 448,208.00781 H 64 c -4.425781,0 -8,-3.57812 -8,-8 0,-4.42578 3.574219,-8 8,-8 h 384 c 4.42578,0 8,3.57422 8,8 0,4.42188 -3.57422,8 -8,8 z m 0,0"
         inkscape:connector-curvature="0"
         style="fill:#ffffff;fill-opacity:1" />
      <path
         id="path880"
         d="M 128,384.00781 H 72 c -4.425781,0 -8,-3.57812 -8,-8 0,-4.42578 3.574219,-8 8,-8 h 56 c 4.42578,0 8,3.57422 8,8 0,4.42188 -3.57422,8 -8,8 z m 0,0"
         inkscape:connector-curvature="0"
         style="fill:#ffffff;fill-opacity:1" />
      <path
         id="path882"
         d="m 128,408.00781 c -4.42578,0 -8,-3.57812 -8,-8 v -24 c 0,-4.42578 3.57422,-8 8,-8 4.42578,0 8,3.57422 8,8 v 24 c 0,4.42188 -3.57422,8 -8,8 z m 0,0"
         inkscape:connector-curvature="0"
         style="fill:#ffffff;fill-opacity:1" />
      <path
         id="path884"
         d="m 72,408.00781 c -4.425781,0 -8,-3.57812 -8,-8 v -24 c 0,-4.42578 3.574219,-8 8,-8 4.425781,0 8,3.57422 8,8 v 24 c 0,4.42188 -3.574219,8 -8,8 z m 0,0"
         inkscape:connector-curvature="0"
         style="fill:#ffffff;fill-opacity:1" />
      <path
         id="path886"
         d="m 232,384.00781 h -56 c -4.42578,0 -8,-3.57812 -8,-8 0,-4.42578 3.57422,-8 8,-8 h 56 c 4.42578,0 8,3.57422 8,8 0,4.42188 -3.57422,8 -8,8 z m 0,0"
         inkscape:connector-curvature="0"
         style="fill:#ffffff;fill-opacity:1" />
      <path
         id="path888"
         d="m 232,408.00781 c -4.42578,0 -8,-3.57812 -8,-8 v -24 c 0,-4.42578 3.57422,-8 8,-8 4.42578,0 8,3.57422 8,8 v 24 c 0,4.42188 -3.57422,8 -8,8 z m 0,0"
         inkscape:connector-curvature="0"
         style="fill:#ffffff;fill-opacity:1" />
      <path
         id="path890"
         d="m 176,408.00781 c -4.42578,0 -8,-3.57812 -8,-8 v -24 c 0,-4.42578 3.57422,-8 8,-8 4.42578,0 8,3.57422 8,8 v 24 c 0,4.42188 -3.57422,8 -8,8 z m 0,0"
         inkscape:connector-curvature="0"
         style="fill:#ffffff;fill-opacity:1" />
      <path
         id="path892"
         d="m 336,384.00781 h -56 c -4.42578,0 -8,-3.57812 -8,-8 0,-4.42578 3.57422,-8 8,-8 h 56 c 4.42578,0 8,3.57422 8,8 0,4.42188 -3.57422,8 -8,8 z m 0,0"
         inkscape:connector-curvature="0"
         style="fill:#ffffff;fill-opacity:1" />
      <path
         id="path894"
         d="m 336,408.00781 c -4.42578,0 -8,-3.57812 -8,-8 v -24 c 0,-4.42578 3.57422,-8 8,-8 4.42578,0 8,3.57422 8,8 v 24 c 0,4.42188 -3.57422,8 -8,8 z m 0,0"
         inkscape:connector-curvature="0"
         style="fill:#ffffff;fill-opacity:1" />
      <path
         id="path896"
         d="m 280,408.00781 c -4.42578,0 -8,-3.57812 -8,-8 v -24 c 0,-4.42578 3.57422,-8 8,-8 4.42578,0 8,3.57422 8,8 v 24 c 0,4.42188 -3.57422,8 -8,8 z m 0,0"
         inkscape:connector-curvature="0"
         style="fill:#ffffff;fill-opacity:1" />
      <path
         id="path898"
         d="m 440,384.00781 h -56 c -4.42578,0 -8,-3.57812 -8,-8 0,-4.42578 3.57422,-8 8,-8 h 56 c 4.42578,0 8,3.57422 8,8 0,4.42188 -3.57422,8 -8,8 z m 0,0"
         inkscape:connector-curvature="0"
         style="fill:#ffffff;fill-opacity:1" />
      <path
         id="path900"
         d="m 440,408.00781 c -4.42578,0 -8,-3.57812 -8,-8 v -24 c 0,-4.42578 3.57422,-8 8,-8 4.42578,0 8,3.57422 8,8 v 24 c 0,4.42188 -3.57422,8 -8,8 z m 0,0"
         inkscape:connector-curvature="0"
         style="fill:#ffffff;fill-opacity:1" />
      <path
         id="path902"
         d="m 384,408.00781 c -4.42578,0 -8,-3.57812 -8,-8 v -24 c 0,-4.42578 3.57422,-8 8,-8 4.42578,0 8,3.57422 8,8 v 24 c 0,4.42188 -3.57422,8 -8,8 z m 0,0"
         inkscape:connector-curvature="0"
         style="fill:#ffffff;fill-opacity:1" />
      <path
         id="path904"
         d="m 80,384.00781 c -4.425781,0 -8,-3.57812 -8,-8 v -144 c 0,-4.42578 3.574219,-8 8,-8 4.425781,0 8,3.57422 8,8 v 144 c 0,4.42188 -3.574219,8 -8,8 z m 0,0"
         inkscape:connector-curvature="0"
         style="fill:#ffffff;fill-opacity:1" />
      <path
         id="path906"
         d="m 120,384.00781 c -4.42578,0 -8,-3.57812 -8,-8 v -144 c 0,-4.42578 3.57422,-8 8,-8 4.42578,0 8,3.57422 8,8 v 144 c 0,4.42188 -3.57422,8 -8,8 z m 0,0"
         inkscape:connector-curvature="0"
         style="fill:#ffffff;fill-opacity:1" />
      <path
         id="path908"
         d="m 80,240.00781 c -13.230469,0 -24,-10.76953 -24,-24 0,-13.23437 10.769531,-24 24,-24 4.425781,0 8,3.57422 8,8 0,4.42188 -3.574219,8 -8,8 -4.414062,0 -8,3.58203 -8,8 0,4.41406 3.585938,8 8,8 4.425781,0 8,3.57422 8,8 0,4.42188 -3.574219,8 -8,8 z m 0,0"
         inkscape:connector-curvature="0"
         style="fill:#ffffff;fill-opacity:1" />
      <path
         id="path910"
         d="m 120,240.00781 c -4.42578,0 -8,-3.57812 -8,-8 0,-4.42578 3.57422,-8 8,-8 4.41797,0 8,-3.58594 8,-8 0,-4.41797 -3.58203,-8 -8,-8 -4.42578,0 -8,-3.57812 -8,-8 0,-4.42578 3.57422,-8 8,-8 13.23047,0 24,10.76563 24,24 0,13.23047 -10.76953,24 -24,24 z m 0,0"
         inkscape:connector-curvature="0"
         style="fill:#ffffff;fill-opacity:1" />
      <path
         id="path912"
         d="M 120,240.00781 H 80 c -4.425781,0 -8,-3.57812 -8,-8 0,-4.42578 3.574219,-8 8,-8 h 40 c 4.42578,0 8,3.57422 8,8 0,4.42188 -3.57422,8 -8,8 z m 0,0"
         inkscape:connector-curvature="0"
         style="fill:#ffffff;fill-opacity:1" />
      <path
         id="path914"
         d="m 184,384.00781 c -4.42578,0 -8,-3.57812 -8,-8 v -144 c 0,-4.42578 3.57422,-8 8,-8 4.42578,0 8,3.57422 8,8 v 144 c 0,4.42188 -3.57422,8 -8,8 z m 0,0"
         inkscape:connector-curvature="0"
         style="fill:#ffffff;fill-opacity:1" />
      <path
         id="path916"
         d="m 224,384.00781 c -4.42578,0 -8,-3.57812 -8,-8 v -144 c 0,-4.42578 3.57422,-8 8,-8 4.42578,0 8,3.57422 8,8 v 144 c 0,4.42188 -3.57422,8 -8,8 z m 0,0"
         inkscape:connector-curvature="0"
         style="fill:#ffffff;fill-opacity:1" />
      <path
         id="path918"
         d="m 184,240.00781 c -13.23047,0 -24,-10.76953 -24,-24 0,-13.23437 10.76953,-24 24,-24 4.42578,0 8,3.57422 8,8 0,4.42188 -3.57422,8 -8,8 -4.41406,0 -8,3.58203 -8,8 0,4.41406 3.58594,8 8,8 4.42578,0 8,3.57422 8,8 0,4.42188 -3.57422,8 -8,8 z m 0,0"
         inkscape:connector-curvature="0"
         style="fill:#ffffff;fill-opacity:1" />
      <path
         id="path920"
         d="m 224,240.00781 c -4.42578,0 -8,-3.57812 -8,-8 0,-4.42578 3.57422,-8 8,-8 4.41797,0 8,-3.58594 8,-8 0,-4.41797 -3.58203,-8 -8,-8 -4.42578,0 -8,-3.57812 -8,-8 0,-4.42578 3.57422,-8 8,-8 13.23047,0 24,10.76563 24,24 0,13.23047 -10.76953,24 -24,24 z m 0,0"
         inkscape:connector-curvature="0"
         style="fill:#ffffff;fill-opacity:1" />
      <path
         id="path922"
         d="m 224,240.00781 h -40 c -4.42578,0 -8,-3.57812 -8,-8 0,-4.42578 3.57422,-8 8,-8 h 40 c 4.42578,0 8,3.57422 8,8 0,4.42188 -3.57422,8 -8,8 z m 0,0"
         inkscape:connector-curvature="0"
         style="fill:#ffffff;fill-opacity:1" />
      <path
         id="path924"
         d="m 288,384.00781 c -4.42578,0 -8,-3.57812 -8,-8 v -144 c 0,-4.42578 3.57422,-8 8,-8 4.42578,0 8,3.57422 8,8 v 144 c 0,4.42188 -3.57422,8 -8,8 z m 0,0"
         inkscape:connector-curvature="0"
         style="fill:#ffffff;fill-opacity:1" />
      <path
         id="path926"
         d="m 328,384.00781 c -4.42578,0 -8,-3.57812 -8,-8 v -144 c 0,-4.42578 3.57422,-8 8,-8 4.42578,0 8,3.57422 8,8 v 144 c 0,4.42188 -3.57422,8 -8,8 z m 0,0"
         inkscape:connector-curvature="0"
         style="fill:#ffffff;fill-opacity:1" />
      <path
         id="path928"
         d="m 288,240.00781 c -13.23047,0 -24,-10.76953 -24,-24 0,-13.23437 10.76953,-24 24,-24 4.42578,0 8,3.57422 8,8 0,4.42188 -3.57422,8 -8,8 -4.41406,0 -8,3.58203 -8,8 0,4.41406 3.58594,8 8,8 4.42578,0 8,3.57422 8,8 0,4.42188 -3.57422,8 -8,8 z m 0,0"
         inkscape:connector-curvature="0"
         style="fill:#ffffff;fill-opacity:1" />
      <path
         id="path930"
         d="m 328,240.00781 c -4.42578,0 -8,-3.57812 -8,-8 0,-4.42578 3.57422,-8 8,-8 4.41797,0 8,-3.58594 8,-8 0,-4.41797 -3.58203,-8 -8,-8 -4.42578,0 -8,-3.57812 -8,-8 0,-4.42578 3.57422,-8 8,-8 13.23047,0 24,10.76563 24,24 0,13.23047 -10.76953,24 -24,24 z m 0,0"
         inkscape:connector-curvature="0"
         style="fill:#ffffff;fill-opacity:1" />
      <path
         id="path932"
         d="m 328,240.00781 h -40 c -4.42578,0 -8,-3.57812 -8,-8 0,-4.42578 3.57422,-8 8,-8 h 40 c 4.42578,0 8,3.57422 8,8 0,4.42188 -3.57422,8 -8,8 z m 0,0"
         inkscape:connector-curvature="0"
         style="fill:#ffffff;fill-opacity:1" />
      <path
         id="path934"
         d="m 392,384.00781 c -4.42578,0 -8,-3.57812 -8,-8 v -144 c 0,-4.42578 3.57422,-8 8,-8 4.42578,0 8,3.57422 8,8 v 144 c 0,4.42188 -3.57422,8 -8,8 z m 0,0"
         inkscape:connector-curvature="0"
         style="fill:#ffffff;fill-opacity:1" />
      <path
         id="path936"
         d="m 432,384.00781 c -4.42578,0 -8,-3.57812 -8,-8 v -144 c 0,-4.42578 3.57422,-8 8,-8 4.42578,0 8,3.57422 8,8 v 144 c 0,4.42188 -3.57422,8 -8,8 z m 0,0"
         inkscape:connector-curvature="0"
         style="fill:#ffffff;fill-opacity:1" />
      <path
         id="path938"
         d="m 392,240.00781 c -13.23047,0 -24,-10.76953 -24,-24 0,-13.23437 10.76953,-24 24,-24 4.42578,0 8,3.57422 8,8 0,4.42188 -3.57422,8 -8,8 -4.41406,0 -8,3.58203 -8,8 0,4.41406 3.58594,8 8,8 4.42578,0 8,3.57422 8,8 0,4.42188 -3.57422,8 -8,8 z m 0,0"
         inkscape:connector-curvature="0"
         style="fill:#ffffff;fill-opacity:1" />
      <path
         id="path940"
         d="m 432,240.00781 c -4.42578,0 -8,-3.57812 -8,-8 0,-4.42578 3.57422,-8 8,-8 4.41797,0 8,-3.58594 8,-8 0,-4.41797 -3.58203,-8 -8,-8 -4.42578,0 -8,-3.57812 -8,-8 0,-4.42578 3.57422,-8 8,-8 13.23047,0 24,10.76563 24,24 0,13.23047 -10.76953,24 -24,24 z m 0,0"
         inkscape:connector-curvature="0"
         style="fill:#ffffff;fill-opacity:1" />
      <path
         id="path942"
         d="m 432,240.00781 h -40 c -4.42578,0 -8,-3.57812 -8,-8 0,-4.42578 3.57422,-8 8,-8 h 40 c 4.42578,0 8,3.57422 8,8 0,4.42188 -3.57422,8 -8,8 z m 0,0"
         inkscape:connector-curvature="0"
         style="fill:#ffffff;fill-opacity:1" />
      <path
         id="path944"
         d="m 64,208.00781 c -4.425781,0 -8,-3.57812 -8,-8 v -24 c 0,-4.42578 3.574219,-8 8,-8 4.425781,0 8,3.57422 8,8 v 24 c 0,4.42188 -3.574219,8 -8,8 z m 0,0"
         inkscape:connector-curvature="0"
         style="fill:#ffffff;fill-opacity:1" />
      <path
         id="path946"
         d="m 448,208.00781 c -4.42578,0 -8,-3.57812 -8,-8 v -24 c 0,-4.42578 3.57422,-8 8,-8 4.42578,0 8,3.57422 8,8 v 24 c 0,4.42188 -3.57422,8 -8,8 z m 0,0"
         inkscape:connector-curvature="0"
         style="fill:#ffffff;fill-opacity:1" />
      <path
         id="path948"
         d="M 496,184.00781 H 16 c -4.425781,0 -8,-3.57812 -8,-8 0,-4.42578 3.574219,-8 8,-8 h 480 c 4.42578,0 8,3.57422 8,8 0,4.42188 -3.57422,8 -8,8 z m 0,0"
         inkscape:connector-curvature="0"
         style="fill:#ffffff;fill-opacity:1" />
      <path
         id="path950"
         d="m 496,184.00781 c -0.83203,0 -1.6875,-0.13672 -2.52734,-0.41797 -4.1836,-1.39062 -6.45704,-5.91797 -5.05469,-10.12109 l 8,-24 c 1.39844,-4.18359 5.88672,-6.46875 10.11719,-5.05469 4.18359,1.39063 6.45703,5.92188 5.05859,10.1211 l -8,24 c -1.12109,3.35156 -4.24219,5.47265 -7.59375,5.47265 z m 0,0"
         inkscape:connector-curvature="0"
         style="fill:#ffffff;fill-opacity:1" />
      <path
         id="path952"
         d="m 16,184.00781 c -3.351562,0 -6.472656,-2.12109 -7.582031,-5.47265 l -8,-24 C -0.984375,150.34375 1.28125,145.80469 5.472656,144.41406 9.6875,143 14.199219,145.27734 15.59375,149.46875 l 8,24 c 1.398438,4.19531 -0.867188,8.73047 -5.058594,10.12109 C 17.6875,183.87109 16.832031,184.00781 16,184.00781 Z m 0,0"
         inkscape:connector-curvature="0"
         style="fill:#ffffff;fill-opacity:1" />
      <path
         id="path954"
         d="m 8.007812,160.00781 c -2.757812,0 -5.449218,-1.43359 -6.925781,-3.98437 -2.21875,-3.82422 -0.914062,-8.72266 2.902344,-10.9375 L 251.98437,1.085938 c 3.83985,-2.191407 8.72657,-0.902344 10.9375,2.90625 2.21485,3.820312 0.91016,8.71875 -2.90625,10.933593 L 12.015625,158.92578 c -1.261719,0.73047 -2.648437,1.08203 -4.007813,1.08203 z m 0,0"
         inkscape:connector-curvature="0"
         style="fill:#ffffff;fill-opacity:1" />
      <path
         id="path956"
         d="m 503.99219,160.00781 c -1.36719,0 -2.74219,-0.34375 -4.00782,-1.08203 l -248,-143.999999 c -3.82421,-2.214843 -5.1289,-7.121093 -2.90234,-10.933593 2.21484,-3.832032 7.11719,-5.121094 10.93359,-2.90625 l 248,144.000002 c 3.82422,2.21484 5.12891,7.12109 2.90625,10.9375 -1.48046,2.55078 -4.16796,3.98437 -6.92968,3.98437 z m 0,0"
         inkscape:connector-curvature="0"
         style="fill:#ffffff;fill-opacity:1" />
      <path
         id="path958"
         d="M 504,160.00781 H 8 c -4.425781,0 -8,-3.57812 -8,-8 0,-4.42578 3.574219,-8 8,-8 h 496 c 4.42578,0 8,3.57422 8,8 0,4.42188 -3.57422,8 -8,8 z m 0,0"
         inkscape:connector-curvature="0"
         style="fill:#ffffff;fill-opacity:1" />
      <path
         id="path960"
         d="m 256,128.00781 c -22.05469,0 -40,-17.94531 -40,-39.999998 0,-22.058593 17.94531,-40 40,-40 22.05469,0 40,17.941407 40,40 0,22.054688 -17.94531,39.999998 -40,39.999998 z m 0,-63.999998 c -13.23047,0 -24,10.765626 -24,24 0,13.230468 10.76953,23.999998 24,23.999998 13.23047,0 24,-10.76953 24,-23.999998 0,-13.234374 -10.76953,-24 -24,-24 z m 0,0"
         inkscape:connector-curvature="0"
         style="fill:#ffffff;fill-opacity:1" />
      <path
         id="path962"
         d="m 256,104.00781 c -4.42578,0 -8,-3.57812 -8,-7.999998 v -16 c 0,-4.425781 3.57422,-8 8,-8 4.42578,0 8,3.574219 8,8 v 16 c 0,4.421878 -3.57422,7.999998 -8,7.999998 z m 0,0"
         inkscape:connector-curvature="0"
         style="fill:#ffffff;fill-opacity:1" />
    </g>
  </g>
</svg>
